<svg version="1.1" id="Layer_1" xmlns="http://www.w3.org/2000/svg" xmlns:xlink="http://www.w3.org/1999/xlink" x="0px" y="0px"
	 width="100%" viewBox="0 0 512 512" enable-background="new 0 0 512 512" xml:space="preserve">
<path fill="#FFFFFF" opacity="1.000000" stroke="none" 
	d="
M1.000000,196.000000 
	C1.000000,130.666672 1.000000,65.833336 1.000000,1.000000 
	C171.666672,1.000000 342.333344,1.000000 513.000000,1.000000 
	C513.000000,171.666672 513.000000,342.333344 513.000000,513.000000 
	C342.333344,513.000000 171.666672,513.000000 1.000000,513.000000 
	C1.000000,407.500000 1.000000,302.000000 1.000000,196.000000 
M492.000000,347.500000 
	C492.000000,239.111252 492.000000,130.722504 492.000000,22.424688 
	C334.849426,22.424688 178.636658,22.424688 22.380501,22.424688 
	C22.380501,179.062012 22.380501,335.274658 22.380501,491.663879 
	C178.973434,491.663879 335.186035,491.663879 492.000000,491.663879 
	C492.000000,443.720215 492.000000,396.110107 492.000000,347.500000 
z"/>
<path fill="#DDDDDD" opacity="1.000000" stroke="none" 
	d="
M492.000000,348.000000 
	C492.000000,396.110107 492.000000,443.720215 492.000000,491.663879 
	C335.186035,491.663879 178.973434,491.663879 22.380501,491.663879 
	C22.380501,335.274658 22.380501,179.062012 22.380501,22.424688 
	C178.636658,22.424688 334.849426,22.424688 492.000000,22.424688 
	C492.000000,130.722504 492.000000,239.111252 492.000000,348.000000 
M236.242218,157.273621 
	C241.834427,180.542053 247.442398,203.806702 253.013992,227.080078 
	C257.617615,246.310089 262.103363,265.568970 266.855682,284.761963 
	C267.429657,287.080109 269.341522,289.067017 270.633301,291.207428 
	C272.016724,289.247498 273.945129,287.476715 274.700958,285.298981 
	C284.510620,257.034973 294.022400,228.666977 303.946136,200.443634 
	C306.006653,194.583466 309.025055,188.941086 312.378418,183.694611 
	C314.785217,179.929077 318.880432,180.090958 321.736572,183.464600 
	C324.262756,186.448456 326.654602,189.881866 327.938873,193.527817 
	C337.770142,221.438217 347.354889,249.435852 356.927856,277.436584 
	C360.003784,286.433655 363.241333,288.986053 372.541046,288.990540 
	C396.202393,289.001862 419.863708,288.994354 443.525055,288.994415 
	C445.271362,288.994415 447.017670,288.994446 449.000000,288.994446 
	C449.000000,286.523560 449.000000,284.867554 449.000000,283.211578 
	C449.000000,218.392868 449.003601,153.574158 448.997345,88.755440 
	C448.995880,73.533630 440.427002,65.003265 425.135742,65.002625 
	C313.161011,64.997910 201.186249,64.997917 89.211510,65.002556 
	C73.905548,65.003189 65.004295,73.888252 65.002777,89.167313 
	C64.996338,153.819397 65.000023,218.471481 65.000015,283.123566 
	C65.000015,284.908295 65.000015,286.693024 65.000015,288.240723 
	C65.817703,288.619446 66.106003,288.869629 66.394714,288.870117 
	C93.552864,288.914764 120.711624,289.046387 147.868835,288.896790 
	C155.162598,288.856628 160.296188,284.389740 161.929428,277.598389 
	C170.982803,239.952530 180.001846,202.298401 189.024826,164.645233 
	C194.755356,140.731583 200.403732,116.797813 206.270920,92.917778 
	C207.128601,89.426926 208.733917,86.038963 210.476456,82.868965 
	C212.236160,79.667694 214.894974,79.726532 216.558548,82.907402 
	C218.389664,86.408592 219.999878,90.145279 220.949768,93.967400 
	C226.119095,114.767105 231.055008,135.624817 236.242218,157.273621 
M360.500061,331.277008 
	C355.167297,331.275787 349.834259,331.310822 344.501862,331.265625 
	C334.374268,331.179810 329.318817,327.603882 325.780212,317.965454 
	C324.176422,313.596985 322.947327,309.075134 321.089447,304.823364 
	C320.320190,303.062866 318.348602,301.827789 316.923798,300.353760 
	C315.617615,301.943604 313.732300,303.330292 313.092560,305.153931 
	C304.287415,330.253815 295.747742,355.446808 286.941833,380.546417 
	C281.883636,394.963776 276.673767,409.338074 271.014526,423.525269 
	C269.960358,426.168030 266.465607,429.440094 264.057343,429.472626 
	C261.812622,429.502960 258.424438,426.008545 257.446167,423.361237 
	C254.578323,415.600586 252.364090,407.560486 250.418945,399.503082 
	C239.459763,354.106628 228.699203,308.662170 217.693741,263.277039 
	C216.984009,260.350098 214.790512,257.782928 213.287216,255.048386 
	C211.935730,257.756592 210.043518,260.328583 209.321426,263.195312 
	C204.978012,280.438385 200.973572,297.766632 196.671173,315.020386 
	C195.924850,318.013306 194.680969,321.035614 193.003845,323.612823 
	C188.809570,330.058105 182.164413,331.287964 175.050339,331.283356 
	C140.389740,331.260895 105.729118,331.275452 71.068504,331.276886 
	C69.144821,331.276947 67.221138,331.276917 64.999023,331.276917 
	C64.999023,333.562286 64.999016,335.049408 64.999023,336.536530 
	C64.999100,366.364655 64.980019,396.192810 65.007561,426.020905 
	C65.020752,440.300995 73.770149,448.993408 88.121117,448.994751 
	C200.768097,449.005219 313.415100,449.004150 426.062073,448.996399 
	C440.711426,448.995392 448.989014,440.716583 448.996277,426.075165 
	C449.011078,396.247040 449.004578,366.418915 448.990540,336.590790 
	C448.989807,334.981171 448.838989,333.371582 448.733704,331.277496 
	C419.412170,331.277496 390.456085,331.277496 360.500061,331.277008 
z"/>
<path fill="#5161BC" opacity="1.000000" stroke="none" 
	d="
M236.156738,156.868103 
	C231.055008,135.624817 226.119095,114.767105 220.949768,93.967400 
	C219.999878,90.145279 218.389664,86.408592 216.558548,82.907402 
	C214.894974,79.726532 212.236160,79.667694 210.476456,82.868965 
	C208.733917,86.038963 207.128601,89.426926 206.270920,92.917778 
	C200.403732,116.797813 194.755356,140.731583 189.024826,164.645233 
	C180.001846,202.298401 170.982803,239.952530 161.929428,277.598389 
	C160.296188,284.389740 155.162598,288.856628 147.868835,288.896790 
	C120.711624,289.046387 93.552864,288.914764 66.394714,288.870117 
	C66.106003,288.869629 65.817703,288.619446 65.000015,288.240723 
	C65.000015,286.693024 65.000015,284.908295 65.000015,283.123566 
	C65.000023,218.471481 64.996338,153.819397 65.002777,89.167313 
	C65.004295,73.888252 73.905548,65.003189 89.211510,65.002556 
	C201.186249,64.997917 313.161011,64.997910 425.135742,65.002625 
	C440.427002,65.003265 448.995880,73.533630 448.997345,88.755440 
	C449.003601,153.574158 449.000000,218.392868 449.000000,283.211578 
	C449.000000,284.867554 449.000000,286.523560 449.000000,288.994446 
	C447.017670,288.994446 445.271362,288.994415 443.525055,288.994415 
	C419.863708,288.994354 396.202393,289.001862 372.541046,288.990540 
	C363.241333,288.986053 360.003784,286.433655 356.927856,277.436584 
	C347.354889,249.435852 337.770142,221.438217 327.938873,193.527817 
	C326.654602,189.881866 324.262756,186.448456 321.736572,183.464600 
	C318.880432,180.090958 314.785217,179.929077 312.378418,183.694611 
	C309.025055,188.941086 306.006653,194.583466 303.946136,200.443634 
	C294.022400,228.666977 284.510620,257.034973 274.700958,285.298981 
	C273.945129,287.476715 272.016724,289.247498 270.633301,291.207428 
	C269.341522,289.067017 267.429657,287.080109 266.855682,284.761963 
	C262.103363,265.568970 257.617615,246.310089 253.013992,227.080078 
	C247.442398,203.806702 241.834427,180.542053 236.156738,156.868103 
z"/>
<path fill="#5261BC" opacity="1.000000" stroke="none" 
	d="
M361.000031,331.277252 
	C390.456085,331.277496 419.412170,331.277496 448.733704,331.277496 
	C448.838989,333.371582 448.989807,334.981171 448.990540,336.590790 
	C449.004578,366.418915 449.011078,396.247040 448.996277,426.075165 
	C448.989014,440.716583 440.711426,448.995392 426.062073,448.996399 
	C313.415100,449.004150 200.768097,449.005219 88.121117,448.994751 
	C73.770149,448.993408 65.020752,440.300995 65.007561,426.020905 
	C64.980019,396.192810 64.999100,366.364655 64.999023,336.536530 
	C64.999016,335.049408 64.999023,333.562286 64.999023,331.276917 
	C67.221138,331.276917 69.144821,331.276947 71.068504,331.276886 
	C105.729118,331.275452 140.389740,331.260895 175.050339,331.283356 
	C182.164413,331.287964 188.809570,330.058105 193.003845,323.612823 
	C194.680969,321.035614 195.924850,318.013306 196.671173,315.020386 
	C200.973572,297.766632 204.978012,280.438385 209.321426,263.195312 
	C210.043518,260.328583 211.935730,257.756592 213.287231,255.048386 
	C214.790512,257.782928 216.984009,260.350098 217.693741,263.277039 
	C228.699203,308.662170 239.459763,354.106628 250.418945,399.503082 
	C252.364090,407.560486 254.578323,415.600586 257.446167,423.361237 
	C258.424438,426.008545 261.812622,429.502960 264.057343,429.472626 
	C266.465607,429.440094 269.960358,426.168030 271.014526,423.525269 
	C276.673767,409.338074 281.883636,394.963776 286.941833,380.546417 
	C295.747742,355.446808 304.287415,330.253815 313.092560,305.153931 
	C313.732300,303.330292 315.617615,301.943604 316.923798,300.353760 
	C318.348602,301.827789 320.320190,303.062866 321.089447,304.823364 
	C322.947327,309.075134 324.176422,313.596985 325.780212,317.965454 
	C329.318817,327.603882 334.374268,331.179810 344.501862,331.265625 
	C349.834259,331.310822 355.167297,331.275787 361.000031,331.277252 
z"/>
</svg>